# xmcd
#
# Track frame offsets: 
#        150
#        12337
#        20400
#        32100
#        41837
#        50187
#        57875
#        68662
#        77550
#        87650
#        98975
#        108812
#        118487
#        127725
#        136187
#        143837
#        154275
#        164462
#        173250
#        179137
#        188187
#        196962
#        207050
#        220150
#
# Disc length: 3076 seconds
#
# Revision: 0
# Processed by: cddbd v1.4PL0 Copyright (c) Steve Scherf et al.
# Submitted via: ExactAudioCopy v0.90a11
#
DISCID=560c0218
DTITLE=Johnny Cash - A Man And His Music CD2
DYEAR=1900
DGENRE=
TTITLE0=I Walk The Line
TTITLE1=The wreck Of The Old 97
TTITLE2=Doin' My time
TTITLE3=Rock Island Line
TTITLE4=Country Boy
TTITLE5=If The Good Lord's Willing
TTITLE6=I Heard The Lonesome Whistle Blow
TTITLE7=Renember Me
TTITLE8=I Was There When It Happened
TTITLE9=Big River
TTITLE10=Ballad Of A Teenager Queen
TTITLE11=Born To Lose
TTITLE12=Down The Street To 310
TTITLE13=I Forgot To Renember To Forgot
TTITLE14=Hey Good Lookin'
TTITLE15=Cold, Cold Heart
TTITLE16=You Win Again
TTITLE17=Life Goes On
TTITLE18=You Tell Me
TTITLE19=Blue Train
TTITLE20=Katy Too
TTITLE21=The Ways Of A Woman In Love
TTITLE22=Thanks A Lot
TTITLE23=Fools Hall Of Fame
EXTD=
EXTT0=
EXTT1=
EXTT2=
EXTT3=
EXTT4=
EXTT5=
EXTT6=
EXTT7=
EXTT8=
EXTT9=
EXTT10=
EXTT11=
EXTT12=
EXTT13=
EXTT14=
EXTT15=
EXTT16=
EXTT17=
EXTT18=
EXTT19=
EXTT20=
EXTT21=
EXTT22=
EXTT23=
PLAYORDER=
